<svg width="512" height="512" viewBox="0 0 512 512" fill="none" xmlns="http://www.w3.org/2000/svg">
<mask id="mask0_306_24" style="mask-type:alpha" maskUnits="userSpaceOnUse" x="94" y="118" width="324" height="277">
<path d="M418 207.469C418 308.482 267.875 390.246 261.482 393.622C259.797 394.527 257.913 395 256 395C254.087 395 252.203 394.527 250.518 393.622C244.125 390.246 94 308.482 94 207.469C94.0268 183.749 103.484 161.007 120.296 144.234C137.108 127.461 159.903 118.027 183.679 118C213.547 118 239.699 130.814 256 152.474C272.301 130.814 298.453 118 328.321 118C352.097 118.027 374.892 127.461 391.704 144.234C408.516 161.007 417.973 183.749 418 207.469Z" fill="black"/>
</mask>
<g mask="url(#mask0_306_24)">
<rect x="-24.9999" y="-20.9998" width="549" height="533" fill="#D9D9D9"/>
<path d="M209.508 282.785C75.8886 185.12 -78.0435 216.605 -120.393 241.928L36.7944 676.534L706.802 478.376L523.251 209.672C474.345 274.737 343.128 380.451 209.508 282.785Z" fill="#998ABA"/>
</g>
</svg>
